# xmcd
#
# Track frame offsets: 
#        150
#        7817
#        24925
#        41120
#        55055
#        71095
#        86765
#        104892
#        120770
#        137845
#        159727
#        185147
#        209265
#        233402
#        252022
#        275197
#        298825
#
# Disc length: 4351 seconds
#
# Revision: 9
# Processed by: cddbd v1.5.2PL0 Copyright (c) Steve Scherf et al.
# Submitted via: ExactAudioCopy v0.99pb4
#
DISCID=f610fd11
DTITLE=Van Halen - Best Of Van Halen (Volume I)
DYEAR=1996
DGENRE=Rock
TTITLE0=Eruption
TTITLE1=Ain't Talkin' 'Bout Love
TTITLE2=Runnin' With The Devil
TTITLE3=Dance The Night Away
TTITLE4=And The Cradle Will Rock
TTITLE5=Unchained
TTITLE6=Jump
TTITLE7=Panama
TTITLE8=Why Can't This Be Love
TTITLE9=Dreams
TTITLE10=When It's Love
TTITLE11=Poundcake
TTITLE12=Right Now
TTITLE13=Can't Stop Lovin' You
TTITLE14=Humans Being
TTITLE15=Can't Get This Stuff No More
TTITLE16=Me Wise Magic
EXTD=YEAR: 1996 ID3G: 17
EXTT0=
EXTT1=
EXTT2=
EXTT3=
EXTT4=
EXTT5=
EXTT6=
EXTT7=
EXTT8=
EXTT9=
EXTT10=
EXTT11=
EXTT12=
EXTT13=
EXTT14=
EXTT15=
EXTT16=
PLAYORDER=
